<svg width="500" height="500" viewBox="0 0 500 500" fill="none" xmlns="http://www.w3.org/2000/svg">
<circle cx="250" cy="250" r="196.078" fill="url(#paint0_radial_2_37)" stroke="white" stroke-width="15.8447"/>
<path fill-rule="evenodd" clip-rule="evenodd" d="M47.7591 240.755C39.9642 242.162 33.6087 243.612 28.7127 245.048C29.6454 245.322 30.6433 245.6 31.7083 245.881C43.1375 248.896 60.1242 251.713 81.6396 254.113C96.3343 255.753 112.98 257.181 131.165 258.35V278.196C112.198 276.994 94.8095 275.511 79.4435 273.797C57.5906 271.359 39.4813 268.414 26.6566 265.031C20.3227 263.361 14.7126 261.441 10.4778 259.132C8.36889 257.982 6.10666 256.473 4.26343 254.448C2.37099 252.369 0.446609 249.187 0.446609 245.049C0.446609 239.263 4.10562 235.448 6.62214 233.47C9.31499 231.354 12.6916 229.721 16.1235 228.393C23.0933 225.695 38.4571 222.368 49.9612 220.291L47.7591 240.755ZM368.835 278.196C387.802 276.994 405.19 275.511 420.557 273.797C442.409 271.359 460.519 268.414 473.343 265.031C479.677 263.361 485.287 261.441 489.522 259.132C491.631 257.982 493.893 256.473 495.737 254.448C497.629 252.369 499.553 249.187 499.553 245.049C499.553 239.263 495.894 235.448 493.378 233.47C490.685 231.354 487.308 229.721 483.877 228.393C477.082 225.763 464.404 223.476 453.113 221.439L452.241 221.282V240.755C460.036 242.162 466.391 243.612 471.287 245.048C470.355 245.322 469.357 245.6 468.292 245.881C456.863 248.896 439.876 251.713 418.36 254.113C403.666 255.753 387.02 257.181 368.835 258.35V278.196ZM18.7367 249.147C18.7367 249.147 18.753 249.13 18.7942 249.096C18.7588 249.13 18.7367 249.147 18.7367 249.147ZM481.263 249.147C481.263 249.147 481.241 249.13 481.206 249.096C481.247 249.13 481.263 249.147 481.263 249.147Z" fill="white"/>
<path d="M248.445 261.95V266.059C248.445 273.811 247.354 280.774 245.172 286.948C243.037 293.075 239.997 298.32 236.051 302.684C232.105 307.001 227.44 310.32 222.055 312.641C216.671 314.915 210.729 316.053 204.23 316.053C197.685 316.053 191.697 314.915 186.265 312.641C180.881 310.32 176.192 307.001 172.2 302.684C168.255 298.32 165.191 293.075 163.009 286.948C160.874 280.774 159.806 273.811 159.806 266.059V261.95C159.806 254.198 160.874 247.235 163.009 241.061C165.191 234.888 168.231 229.642 172.131 225.325C176.076 220.962 180.742 217.643 186.126 215.368C191.557 213.047 197.546 211.887 204.091 211.887C210.59 211.887 216.531 213.047 221.916 215.368C227.347 217.643 232.035 220.962 235.981 225.325C239.927 229.642 242.991 234.888 245.172 241.061C247.354 247.235 248.445 254.198 248.445 261.95ZM223.657 266.059V261.811C223.657 256.798 223.216 252.388 222.334 248.581C221.498 244.729 220.245 241.502 218.574 238.903C216.903 236.303 214.837 234.354 212.377 233.054C209.963 231.708 207.201 231.035 204.091 231.035C200.841 231.035 198.01 231.708 195.596 233.054C193.182 234.354 191.163 236.303 189.538 238.903C187.913 241.502 186.683 244.729 185.848 248.581C185.059 252.388 184.664 256.798 184.664 261.811V266.059C184.664 271.025 185.059 275.435 185.848 279.288C186.683 283.095 187.913 286.321 189.538 288.967C191.209 291.613 193.252 293.609 195.666 294.955C198.126 296.301 200.981 296.974 204.23 296.974C207.34 296.974 210.102 296.301 212.516 294.955C214.93 293.609 216.949 291.613 218.574 288.967C220.245 286.321 221.498 283.095 222.334 279.288C223.216 275.435 223.657 271.025 223.657 266.059ZM313.34 287.713C313.34 286.135 313.108 284.719 312.644 283.466C312.179 282.166 311.321 280.959 310.067 279.845C308.814 278.731 307.004 277.617 304.636 276.503C302.315 275.343 299.252 274.136 295.445 272.882C290.989 271.397 286.695 269.726 282.564 267.869C278.432 265.966 274.742 263.761 271.492 261.254C268.243 258.701 265.667 255.73 263.764 252.341C261.86 248.906 260.909 244.914 260.909 240.365C260.909 236.002 261.883 232.079 263.833 228.598C265.783 225.07 268.498 222.076 271.98 219.615C275.508 217.109 279.639 215.206 284.374 213.906C289.109 212.56 294.285 211.887 299.901 211.887C307.329 211.887 313.874 213.186 319.537 215.786C325.247 218.339 329.703 221.983 332.906 226.718C336.155 231.406 337.78 236.953 337.78 243.359H313.479C313.479 240.806 312.945 238.555 311.878 236.605C310.856 234.655 309.301 233.124 307.213 232.01C305.124 230.895 302.501 230.338 299.344 230.338C296.281 230.338 293.704 230.803 291.615 231.731C289.527 232.659 287.948 233.913 286.881 235.491C285.813 237.023 285.279 238.717 285.279 240.574C285.279 242.106 285.697 243.498 286.532 244.752C287.414 245.959 288.645 247.096 290.223 248.164C291.848 249.231 293.797 250.253 296.072 251.227C298.393 252.202 300.992 253.154 303.87 254.082C309.255 255.8 314.036 257.726 318.214 259.861C322.438 261.95 325.989 264.341 328.867 267.033C331.792 269.679 333.997 272.697 335.482 276.085C337.014 279.474 337.78 283.304 337.78 287.574C337.78 292.123 336.898 296.162 335.134 299.69C333.37 303.218 330.84 306.212 327.544 308.672C324.249 311.086 320.303 312.919 315.707 314.173C311.112 315.426 305.982 316.053 300.319 316.053C295.12 316.053 289.991 315.403 284.931 314.103C279.918 312.757 275.368 310.714 271.284 307.976C267.199 305.191 263.926 301.639 261.466 297.322C259.052 292.959 257.845 287.783 257.845 281.795H282.355C282.355 284.766 282.749 287.272 283.538 289.315C284.328 291.357 285.488 293.005 287.02 294.259C288.552 295.466 290.432 296.348 292.66 296.905C294.888 297.415 297.441 297.671 300.319 297.671C303.429 297.671 305.936 297.23 307.839 296.348C309.742 295.419 311.135 294.212 312.017 292.727C312.899 291.195 313.34 289.524 313.34 287.713Z" fill="white"/>
<defs>
<radialGradient id="paint0_radial_2_37" cx="0" cy="0" r="1" gradientUnits="userSpaceOnUse" gradientTransform="translate(250 250) rotate(90) scale(204)">
<stop stop-color="#420043"/>
<stop offset="1" stop-color="#06004B"/>
</radialGradient>
</defs>
</svg>
